<?xml version="1.0" encoding="UTF-8" standalone="no"?>
<!-- Created with Inkscape (http://www.inkscape.org/) -->

<svg
   width="291.46545mm"
   height="337.7782mm"
   viewBox="0 0 291.46545 337.7782"
   version="1.1"
   id="svg5"
   xml:space="preserve"
   inkscape:version="1.2.2 (b0a8486541, 2022-12-01)"
   sodipodi:docname="ingeniatec_logo.svg"
   xmlns:inkscape="http://www.inkscape.org/namespaces/inkscape"
   xmlns:sodipodi="http://sodipodi.sourceforge.net/DTD/sodipodi-0.dtd"
   xmlns="http://www.w3.org/2000/svg"
   xmlns:svg="http://www.w3.org/2000/svg"><sodipodi:namedview
     id="namedview7"
     pagecolor="#ffffff"
     bordercolor="#000000"
     borderopacity="0.25"
     inkscape:showpageshadow="2"
     inkscape:pageopacity="0.0"
     inkscape:pagecheckerboard="0"
     inkscape:deskcolor="#d1d1d1"
     inkscape:document-units="mm"
     showgrid="false"
     showguides="true"
     inkscape:zoom="0.24598695"
     inkscape:cx="3101.7905"
     inkscape:cy="-1132.1739"
     inkscape:window-width="1920"
     inkscape:window-height="1015"
     inkscape:window-x="0"
     inkscape:window-y="0"
     inkscape:window-maximized="1"
     inkscape:current-layer="layer1"><sodipodi:guide
       position="-133.90354,-665.78758"
       orientation="0,-1"
       id="guide467"
       inkscape:locked="false" /></sodipodi:namedview><defs
     id="defs2"><rect
       x="142.83183"
       y="1778.2795"
       width="1315.6344"
       height="306.86331"
       id="rect523-6-9-6-2-2-3" /><rect
       x="142.83183"
       y="1778.2795"
       width="1315.6344"
       height="306.86331"
       id="rect523-6-5-1-2-0-8-1" /><rect
       x="142.83183"
       y="1778.2795"
       width="1315.6344"
       height="306.86331"
       id="rect523-6-5-5-2-1-2-9-9" /><rect
       x="142.83183"
       y="1778.2795"
       width="1315.6344"
       height="306.86331"
       id="rect523-2-0-3-7-4" /></defs><g
     inkscape:label="Capa 1"
     inkscape:groupmode="layer"
     id="layer1"
     transform="translate(-414.26515,552.55363)"><path
       style="fill:#ffffff;stroke-width:0.482092"
       d="m 527.231,-260.40406 c -3.33328,-0.52007 -3.58543,-2.7925 -0.4868,-4.39097 1.18724,-0.61237 4.68745,-0.71845 22.85508,-0.69245 15.9325,0.0233 21.7321,0.18211 22.5376,0.61957 0.8324,0.45181 1.0849,1.01671 1.0849,2.42665 v 1.83778 l -5.4237,0.31247 c -6.6175,0.38134 -37.95835,0.29379 -40.56708,-0.11324 z m 21.64488,-9.58402 c -0.5299,-0.11206 -1.1203,-0.34943 -1.3113,-0.52804 -0.1907,-0.17823 -0.6658,-3.95947 -1.0549,-8.40228 -0.9211,-10.50808 -1.5636,-12.0365 -6.8631,-16.32408 -2.0787,-1.68194 -4.8209,-4.0343 -6.09417,-5.22745 -2.19352,-2.05647 -2.3484,-2.37026 -2.97023,-6.02621 -0.36189,-2.12118 -0.80939,-6.29732 -0.99617,-9.28027 l -0.33854,-5.42356 h 19.57751 19.5775 v 5.71238 c 0,3.14183 -0.1401,7.31796 -0.3075,9.2803 l -0.3113,3.56793 -3.3352,2.65152 c -1.8343,1.4583 -4.9198,4.29937 -6.8564,6.31347 -4.0201,4.18111 -4.2883,4.90256 -5.0899,13.69342 -0.2646,2.91664 -0.607,6.22447 -0.758,7.35065 -0.2879,2.16531 -1.1911,2.99598 -2.8667,2.64222 z m -26.14127,-58.37413 c -8.19934,-0.43162 -8.03551,-0.23892 -8.25148,-9.70064 l -0.16344,-7.19585 -2.00518,-0.26344 c -1.10279,-0.14476 -4.28314,-0.49649 -7.06697,-0.78138 -16.78509,-1.71734 -26.70555,-6.14069 -34.85859,-15.54295 -5.16102,-5.95216 -6.82766,-9.05017 -9.25427,-17.20476 l -1.50632,-5.06199 -3.82631,-0.62105 c -4.9649,-0.80596 -8.58341,-2.55479 -10.13409,-4.89832 -1.78688,-2.70021 -2.23438,-8.39317 -2.04799,-26.05516 l 0.15955,-15.18853 1.3386,-2.27714 c 1.71411,-2.91571 4.47032,-4.54017 9.34961,-5.50992 2.076,-0.41263 4.22983,-1.03637 4.7859,-1.38612 0.64401,-0.40492 1.57831,-2.26885 2.57214,-5.13218 3.99597,-11.51138 11.75404,-21.59527 20.70557,-26.91342 l 3.43134,-2.0385 v -23.31966 -23.31965 l -2.87138,-1.44963 c -6.19844,-3.12883 -8.72117,-6.83326 -9.07956,-13.33219 -0.28017,-5.07358 0.6518,-7.97925 3.61463,-11.27478 2.39547,-2.66441 4.83454,-4.1203 8.57757,-5.12013 3.28931,-0.87865 4.91159,-0.81935 8.5803,0.31364 3.97924,1.2291 7.46272,4.24322 9.35311,8.09296 1.19113,2.42528 1.35028,3.28872 1.35028,7.32905 0,4.16866 -0.12841,4.81014 -1.42032,7.1441 -1.64797,2.97447 -3.601,4.81509 -7.36311,6.93814 l -2.68966,1.51783 0.27239,12.24555 c 0.14787,6.73505 0.39419,12.36867 0.54478,12.51918 0.15176,0.1506 2.03126,-0.52995 4.18003,-1.51204 13.50823,-6.17489 27.73791,-9.32707 36.69454,-8.12871 5.2859,0.70724 8.953,2.13005 11.6824,4.53258 4.1571,3.65929 5.8891,7.74822 6.7105,15.8453 l 0.5627,5.54408 20.4892,0.3008 c 18.77013,0.2755 23.35403,0.56322 28.93143,1.81637 l 1.9227,0.43201 v -22.28951 -22.28948 l -2.5309,-1.35351 c -5.5074,-2.9452 -8.5535,-6.64909 -9.4605,-11.50348 -1.2122,-6.48845 2.678,-13.60746 9.099,-16.65142 2.1702,-1.0289 3.3512,-1.257 6.5078,-1.257 4.6614,0 8.1674,1.41705 11.3287,4.57857 3.0741,3.07369 4.0882,5.70175 4.0936,10.60661 0,3.75747 -0.1323,4.35105 -1.6483,7.14702 -1.7495,3.22701 -3.6858,5.11518 -7.1047,6.92895 l -2.0893,1.10832 v 24.34657 24.34657 l 2.9765,1.89833 c 6.0439,3.85483 14.0355,12.68203 17.2147,19.01422 1.3802,2.74989 3.4893,8.65275 4.1111,11.50869 0.3736,1.71407 0.5818,1.80404 5.3268,2.30026 3.6695,0.38368 7.5051,2.10215 8.8227,3.95281 1.6585,2.32874 2.0173,5.03245 2.3208,17.48961 0.3775,15.48018 -0.2335,23.81447 -1.9655,26.76847 -1.618,2.76052 -4.4707,4.41276 -9.2601,5.36286 -2.076,0.41186 -4.0392,1.08427 -4.3621,1.49426 -0.323,0.40999 -1.2655,2.93707 -2.0943,5.61572 -4.598,14.85948 -13.5787,23.757 -28.8956,28.62765 -4.8816,1.55228 -11.4548,2.78029 -17.3556,3.24223 -1.9884,0.15565 -4.3002,0.38757 -5.1372,0.51532 l -1.5219,0.23231 -0.1673,6.87895 c -0.1829,7.61666 -0.6658,9.09873 -3.14933,9.6776 -1.876,0.43723 -51.10976,0.7402 -58.35029,0.35917 z m 60.8532,-22.73156 c 0.1751,-0.79768 0.7016,-1.65548 1.1705,-1.90627 0.4682,-0.2506 3.759,-0.69755 7.3125,-0.99283 3.5536,-0.29534 8.0881,-0.86511 10.0765,-1.2663 12.2825,-2.47794 22.3796,-10.55396 26.9181,-21.53044 2.4149,-5.8406 2.5741,-8.27192 2.404,-36.73131 l -0.1556,-26.03306 -1.506,-4.20831 c -3.9205,-10.95605 -12.3443,-19.83777 -23.1948,-24.45502 -6.8354,-2.90878 -7.2032,-2.94886 -31.22183,-3.40391 -44.51248,-0.84332 -68.0225,-0.45458 -76.33352,1.26218 -4.60301,0.95076 -8.96515,2.69308 -12.5607,5.0172 -6.83273,4.41603 -13.62848,12.64016 -16.86059,20.40298 -2.25111,5.40776 -2.56514,10.43897 -2.35306,37.68514 0.15954,20.29266 0.28406,23.49652 1.02652,26.03305 2.76126,9.4409 10.02631,18.27702 18.61711,22.64211 4.89525,2.48747 9.12936,3.5682 17.27773,4.41008 8.38184,0.86593 9.69866,1.20708 10.06483,2.60767 0.45956,1.75723 0.0973,1.7396 37.58128,1.83626 l 31.41793,0.0809 z m -85.74929,-33.54318 c -8.3227,-2.01452 -15.19822,-8.86195 -17.40498,-17.33376 -0.95648,-3.67283 -0.94986,-11.39257 0.0389,-15.62836 2.13554,-9.38868 10.48353,-16.68656 20.4643,-17.88952 2.62157,-0.31597 21.0624,-0.44271 51.10204,-0.35138 l 47.00063,0.1432 3.2196,1.25319 c 6.4759,2.5205 10.7139,6.19451 13.5013,11.70399 3.6621,7.23851 3.6916,18.38515 0.07,25.84243 -2.8632,5.89371 -10.0886,11.28435 -16.7575,12.50245 -1.9402,0.35449 -18.23113,0.50956 -50.61983,0.48232 -39.50212,-0.035 -48.24858,-0.15837 -50.58725,-0.72467 z m 22.2862,-15.46617 c 5.88636,-3.35881 11.21432,-6.61827 11.83887,-7.24318 2.2196,-2.21939 1.82696,-6.0473 -0.82456,-8.044 -0.85103,-0.64054 -6.08987,-3.79035 -11.64236,-6.99954 -11.66065,-6.73952 -12.68328,-7.01619 -15.50369,-4.19582 -1.39347,1.39366 -1.63901,1.97452 -1.63901,3.87868 0,2.89754 0.64479,3.52831 8.10984,7.93026 3.24262,1.91226 5.78246,3.66 5.64432,3.88394 -0.14008,0.22375 -2.80173,1.88743 -5.91826,3.69669 -7.04636,4.0906 -7.8359,4.88964 -7.8359,7.93026 0,1.92887 0.24126,2.54397 1.48336,3.78634 1.19152,1.1914 1.88689,1.48336 3.53368,1.48336 1.74136,0 3.66405,-0.92072 12.75371,-6.10699 z m 75.70439,-5.41563 c 1.2923,-1.20704 1.4973,-1.73174 1.4973,-3.82985 0,-3.16187 -1.3359,-4.81975 -4.3528,-5.40181 -1.1856,-0.22881 -8.1215,-0.42447 -15.41303,-0.43505 -12.3198,-0.0195 -13.367,0.0475 -14.8009,0.92189 -3.3675,2.05312 -3.8423,6.1431 -1.0199,8.77969 l 1.46,1.36382 h 15.5659 15.56643 z M 507.3714,-478.8505 c 5.85795,-0.25294 14.03317,-0.46342 18.16728,-0.46797 4.1345,-0.004 10.51,-0.15176 14.169,-0.32726 l 6.6521,-0.31908 -0.2957,-4.48363 c -0.4561,-6.94312 -2.0278,-9.69251 -6.7673,-11.83715 -2.2325,-1.01022 -3.1341,-1.11502 -9.22358,-1.07198 -6.11244,0.0432 -7.36621,0.21013 -13.28681,1.7705 -7.05998,1.86047 -13.05373,4.08461 -18.77238,6.96604 l -3.61579,1.82182 -0.14008,3.48769 c -0.15565,3.79973 0.46228,5.68864 1.70088,5.21324 0.41948,-0.16071 5.55521,-0.49945 11.41277,-0.7523 z m -14.54798,-50.07631 c 5.64704,-2.42061 6.89537,-8.60267 2.60366,-12.89445 -3.2181,-3.21795 -7.42925,-3.43998 -10.70455,-0.56436 -2.2017,1.93308 -3.09864,3.71973 -3.09864,6.17186 0,3.27254 1.91919,5.95866 5.30656,7.42763 2.23866,0.97079 3.36285,0.94394 5.89297,-0.14087 z m 119.34289,-0.32219 c 2.0841,-0.87049 4.2411,-2.79617 5.21,-4.65092 0.8903,-1.70407 0.8682,-5.37231 -0.043,-7.13382 -2.4694,-4.77579 -9.685,-5.8441 -13.6935,-2.02741 -3.4663,3.30079 -3.6679,7.77827 -0.512,11.37258 2.6628,3.03295 5.6727,3.84533 9.0379,2.43957 z"
       id="path338-3-3-7" /><text
       xml:space="preserve"
       transform="matrix(0.26458333,0,0,0.26458333,576.7191,-733.06587)"
       id="text521-7-9-8-7-6-8"
       style="font-size:192px;font-family:GNUTypewriter;-inkscape-font-specification:GNUTypewriter;white-space:pre;shape-inside:url(#rect523-6-9-6-2-2-3);display:inline;fill:#ff00e6;fill-opacity:1;stroke:#ff00e6;stroke-width:0.551811;stroke-opacity:1"><tspan
         x="142.83203"
         y="1955.8793"
         id="tspan5251"><tspan
           style="font-weight:bold;font-family:'DejaVu Sans';-inkscape-font-specification:'DejaVu Sans Bold'"
           id="tspan5249">T</tspan></tspan></text><text
       xml:space="preserve"
       transform="matrix(0.26458333,0,0,0.26458333,606.54471,-733.05815)"
       id="text521-7-3-3-7-5-1-4"
       style="font-size:192px;font-family:GNUTypewriter;-inkscape-font-specification:GNUTypewriter;white-space:pre;shape-inside:url(#rect523-6-5-1-2-0-8-1);display:inline;fill:#ffbb00;fill-opacity:1;stroke:#ffbb00;stroke-width:0.551811;stroke-opacity:1"><tspan
         x="142.83203"
         y="1955.8793"
         id="tspan5255"><tspan
           style="font-weight:bold;font-family:'DejaVu Sans';-inkscape-font-specification:'DejaVu Sans Bold'"
           id="tspan5253">E</tspan></tspan></text><text
       xml:space="preserve"
       transform="matrix(0.26458333,0,0,0.26458333,633.83461,-733.1148)"
       id="text521-7-3-6-6-9-9-2-5"
       style="font-size:192px;font-family:GNUTypewriter;-inkscape-font-specification:GNUTypewriter;white-space:pre;shape-inside:url(#rect523-6-5-5-2-1-2-9-9);display:inline;fill:#006cff;fill-opacity:1;stroke:#006cff;stroke-width:0.551811;stroke-opacity:1"><tspan
         x="142.83203"
         y="1955.8793"
         id="tspan5259"><tspan
           style="font-weight:bold;font-family:'DejaVu Sans';-inkscape-font-specification:'DejaVu Sans Bold'"
           id="tspan5257">C</tspan></tspan></text><text
       xml:space="preserve"
       transform="matrix(0.26458333,0,0,0.26458333,371.8839,-733.06081)"
       id="text521-0-6-2-9-0"
       style="font-size:192px;font-family:GNUTypewriter;-inkscape-font-specification:GNUTypewriter;letter-spacing:-10.97px;word-spacing:0px;white-space:pre;shape-inside:url(#rect523-2-0-3-7-4);display:inline;fill:#ffffff;stroke:#ffffff;stroke-width:0.551811"><tspan
         x="142.83203"
         y="1955.8793"
         id="tspan5263"><tspan
           style="font-weight:bold;font-family:'DejaVu Sans';-inkscape-font-specification:'DejaVu Sans Bold'"
           id="tspan5261">INGENIA</tspan></tspan></text></g></svg>
