<?xml version="1.0" encoding="UTF-8" standalone="no"?>
<!-- Created with Inkscape (http://www.inkscape.org/) -->

<svg
   width="600.52686mm"
   height="150.24867mm"
   viewBox="0 0 600.52686 150.24867"
   version="1.1"
   id="svg5"
   xml:space="preserve"
   inkscape:version="1.2.2 (b0a8486541, 2022-12-01)"
   sodipodi:docname="ingeniatec_logo.svg"
   xmlns:inkscape="http://www.inkscape.org/namespaces/inkscape"
   xmlns:sodipodi="http://sodipodi.sourceforge.net/DTD/sodipodi-0.dtd"
   xmlns="http://www.w3.org/2000/svg"
   xmlns:svg="http://www.w3.org/2000/svg"><sodipodi:namedview
     id="namedview7"
     pagecolor="#ffffff"
     bordercolor="#000000"
     borderopacity="0.25"
     inkscape:showpageshadow="2"
     inkscape:pageopacity="0.0"
     inkscape:pagecheckerboard="0"
     inkscape:deskcolor="#d1d1d1"
     inkscape:document-units="mm"
     showgrid="false"
     showguides="true"
     inkscape:zoom="0.24598695"
     inkscape:cx="3101.7905"
     inkscape:cy="-1132.1739"
     inkscape:window-width="1920"
     inkscape:window-height="1015"
     inkscape:window-x="0"
     inkscape:window-y="0"
     inkscape:window-maximized="1"
     inkscape:current-layer="layer1"><sodipodi:guide
       position="-517.77512,-665.59602"
       orientation="0,-1"
       id="guide467"
       inkscape:locked="false" /></sodipodi:namedview><defs
     id="defs2"><rect
       x="142.83183"
       y="1778.2795"
       width="1315.6344"
       height="306.86331"
       id="rect523-6-9-6-2-2" /><rect
       x="142.83183"
       y="1778.2795"
       width="1315.6344"
       height="306.86331"
       id="rect523-6-5-1-2-0-8" /><rect
       x="142.83183"
       y="1778.2795"
       width="1315.6344"
       height="306.86331"
       id="rect523-6-5-5-2-1-2-9" /><rect
       x="142.83183"
       y="1778.2795"
       width="1315.6344"
       height="306.86331"
       id="rect523-2-0-3-7" /></defs><g
     inkscape:label="Capa 1"
     inkscape:groupmode="layer"
     id="layer1"
     transform="translate(-798.13674,364.83257)"><path
       style="fill:#ffffff;stroke-width:0.247631"
       d="m 841.10464,-214.7671 c -1.71231,-0.26713 -1.84174,-1.4344 -0.2501,-2.25547 0.60976,-0.31455 2.4077,-0.36904 11.7397,-0.35569 8.18397,0.0115 11.16296,0.0936 11.57673,0.31825 0.42753,0.23209 0.55724,0.52225 0.55724,1.24648 v 0.944 l -2.78588,0.16041 c -3.39912,0.19588 -19.49765,0.15089 -20.83769,-0.0582 z m 11.11813,-4.92293 c -0.27237,-0.0576 -0.57553,-0.17949 -0.67361,-0.27124 -0.0981,-0.0914 -0.34199,-2.03382 -0.54189,-4.3159 -0.47303,-5.39759 -0.80314,-6.18267 -3.5252,-8.38503 -1.0678,-0.86395 -2.47647,-2.07225 -3.13032,-2.68512 -1.12687,-1.05634 -1.20632,-1.21752 -1.52585,-3.09544 -0.18529,-1.08956 -0.41564,-3.23467 -0.51167,-4.76689 l -0.1747,-2.78588 h 10.05623 10.05613 v 2.93423 c 0,1.61383 -0.0711,3.75895 -0.15894,4.76692 l -0.15893,1.8327 -1.71312,1.36199 c -0.9422,0.74906 -2.52701,2.20842 -3.52182,3.24297 -2.06503,2.14767 -2.20281,2.51825 -2.61452,7.03375 -0.13677,1.49817 -0.31186,3.19726 -0.38928,3.77573 -0.14892,1.11224 -0.61198,1.53893 -1.47267,1.35721 z m -13.42776,-29.98444 c -4.21169,-0.2217 -4.12753,-0.12265 -4.23854,-4.98283 l -0.0841,-3.69623 -1.0299,-0.13529 c -0.56651,-0.0743 -2.2001,-0.25504 -3.6301,-0.40136 -8.6218,-0.88213 -13.71749,-3.15423 -17.90534,-7.98379 -2.6511,-3.05739 -3.50711,-4.64871 -4.75358,-8.8374 l -0.77372,-2.60013 -1.96538,-0.31901 c -2.55042,-0.41399 -4.40899,-1.3123 -5.20557,-2.51607 -0.91787,-1.387 -1.14772,-4.31123 -1.05188,-13.38349 l 0.0823,-7.80175 0.68753,-1.16966 c 0.88042,-1.49769 2.2963,-2.33211 4.80246,-2.83022 1.0664,-0.21195 2.17266,-0.53236 2.45841,-0.712 0.33086,-0.20799 0.8107,-1.16543 1.32126,-2.63621 2.05249,-5.91292 6.03742,-11.09261 10.63557,-13.82433 l 1.76254,-1.04708 v -11.97838 -11.97838 l -1.47502,-0.74461 c -3.18378,-1.60715 -4.47968,-3.50996 -4.66377,-6.8482 -0.14367,-2.6061 0.33479,-4.09863 1.8567,-5.7914 1.23048,-1.36861 2.48333,-2.11644 4.4059,-2.63001 1.68966,-0.45132 2.52291,-0.42087 4.40741,0.16106 2.04398,0.63135 3.83339,2.17957 4.80443,4.15704 0.61171,1.24578 0.69342,1.68928 0.69342,3.76464 0,2.14127 -0.0656,2.47077 -0.72956,3.66963 -0.84635,1.52787 -1.84968,2.47332 -3.78201,3.56384 l -1.38154,0.77965 0.1394,6.29006 c 0.0767,3.45952 0.20253,6.35327 0.27975,6.4306 0.0778,0.0774 1.04347,-0.27223 2.14712,-0.77669 6.93871,-3.1718 14.2479,-4.79093 18.84855,-4.17539 2.71515,0.36328 4.5988,1.09413 6.00074,2.32821 2.13541,1.87963 3.02494,3.97995 3.44703,8.13909 l 0.28901,2.84776 10.52437,0.1545 c 9.64153,0.14154 11.99604,0.28931 14.86085,0.933 l 0.98769,0.2219 v -11.44922 -11.44921 l -1.30011,-0.69524 c -2.82885,-1.51284 -4.39356,-3.41538 -4.85935,-5.90888 -0.6227,-3.33285 1.37543,-6.98959 4.67367,-8.55316 1.11478,-0.5285 1.72145,-0.64567 3.34295,-0.64567 2.39421,0 4.19514,0.72788 5.81907,2.35182 1.57891,1.57885 2.09985,2.92876 2.10276,5.4482 0,1.93004 -0.0683,2.23495 -0.84674,3.67113 -0.89878,1.6576 -1.89321,2.62746 -3.64939,3.55912 l -1.07313,0.5693 0.0101,12.50585 v 12.50587 l 1.52885,0.97508 c 3.10449,1.98009 7.2095,6.51426 8.84241,9.76685 0.70905,1.41251 1.79231,4.44456 2.11184,5.91155 0.19187,0.88045 0.29877,0.92666 2.736,1.18156 1.88499,0.19707 3.85522,1.07977 4.53207,2.0304 0.85179,1.19616 1.03608,2.58497 1.19211,8.98369 0.19387,7.95155 -0.12052,12.23255 -1.00978,13.7499 -0.83102,1.41797 -2.2964,2.26664 -4.75651,2.75469 -1.06639,0.21155 -2.07468,0.55694 -2.24062,0.76753 -0.1659,0.21058 -0.65,1.50866 -1.07576,2.88456 -2.36172,7.63273 -6.97475,12.20303 -14.84249,14.70488 -2.50745,0.79734 -5.88383,1.42813 -8.91475,1.66539 -1.02147,0.0799 -2.20899,0.19909 -2.63896,0.26471 l -0.78168,0.11937 -0.0852,3.53344 c -0.0941,3.91235 -0.34189,4.67366 -1.61768,4.97098 -0.96352,0.22461 -26.25298,0.38022 -29.97218,0.1845 z m 31.25773,-11.67629 c 0.0899,-0.40974 0.36051,-0.85035 0.60124,-0.97918 0.24064,-0.12872 1.93102,-0.3583 3.75626,-0.50997 1.82526,-0.15171 4.15443,-0.44438 5.17581,-0.65045 6.30902,-1.27282 11.49548,-5.42115 13.82681,-11.05932 1.24049,-3.00009 1.32219,-4.24895 1.23488,-18.8674 l -0.0796,-13.37214 -0.77357,-2.16164 c -2.01384,-5.62767 -6.34092,-10.18986 -11.91432,-12.56155 -3.51116,-1.49412 -3.70002,-1.51471 -16.03739,-1.74845 -22.86426,-0.43319 -34.94031,-0.23351 -39.20948,0.64834 -2.36434,0.48836 -4.60488,1.38332 -6.45193,2.57712 -3.50958,2.26834 -7.0004,6.49274 -8.66048,10.4802 -1.15632,2.77774 -1.3177,5.36207 -1.20866,19.35733 0.0813,10.42353 0.14613,12.06923 0.52722,13.37213 1.41832,4.84943 5.15015,9.38818 9.56278,11.63035 2.51449,1.2777 4.68951,1.83283 8.875,2.26527 4.30537,0.4448 4.98167,0.62003 5.16979,1.33946 0.23603,0.90261 0.0505,0.89358 19.30399,0.94322 l 16.13827,0.0416 z m -44.04583,-17.22978 c -4.27504,-1.03478 -7.8067,-4.55203 -8.9402,-8.90366 -0.49137,-1.88659 -0.48798,-5.8519 0.0101,-8.02766 1.09692,-4.82259 5.38499,-8.57122 10.51166,-9.18913 1.34652,-0.16222 10.81879,-0.2274 26.24895,-0.18049 l 24.1423,0.0735 1.65388,0.64372 c 3.3264,1.29468 5.50339,3.18186 6.93509,6.01186 1.88102,3.71814 1.89618,9.44373 0.0356,13.27421 -1.47081,3.02736 -5.18216,5.79632 -8.60777,6.42201 -0.99647,0.18209 -9.36444,0.26175 -26.0013,0.24776 -20.29064,-0.0181 -24.78323,-0.0814 -25.98458,-0.37224 z m 11.4474,-7.94435 c 3.02373,-1.72529 5.76038,-3.39955 6.0813,-3.72053 1.14006,-1.14001 0.93837,-3.10626 -0.42367,-4.13187 -0.43701,-0.32904 -3.1281,-1.94696 -5.98025,-3.59539 -5.9896,-3.46182 -6.51474,-3.60395 -7.96348,-2.15524 -0.71588,0.71588 -0.84197,1.01424 -0.84197,1.99233 0,1.48835 0.33133,1.81236 4.16575,4.07346 1.66559,0.98225 2.97027,1.87998 2.89923,1.99502 -0.0711,0.11493 -1.43908,0.9695 -3.03999,1.89885 -3.61945,2.10117 -4.02499,2.51161 -4.02499,4.07345 0,0.99078 0.12379,1.30673 0.76196,1.94488 0.61199,0.61199 0.96926,0.76196 1.81514,0.76196 0.89438,0 1.88207,-0.47294 6.55097,-3.13692 z m 38.88639,-2.78178 c 0.66367,-0.62002 0.76906,-0.88954 0.76906,-1.96726 0,-1.62411 -0.68622,-2.47572 -2.23585,-2.77469 -0.60891,-0.11756 -4.17164,-0.21802 -7.91706,-0.22346 -6.32819,-0.0101 -6.866,0.0242 -7.60266,0.47354 -1.72961,1.05461 -1.97361,3.15546 -0.52383,4.50976 l 0.74995,0.70055 h 7.99568 7.99566 z m -45.43708,-37.66759 c 3.00893,-0.12986 7.20817,-0.23804 9.33172,-0.24036 2.12362,-10e-4 5.39863,-0.078 7.27799,-0.1681 l 3.4169,-0.16386 -0.15138,-2.30306 c -0.23427,-3.56639 -1.04161,-4.97866 -3.47596,-6.08026 -1.14672,-0.51891 -1.60999,-0.57275 -4.73787,-0.55063 -3.13978,0.0221 -3.78362,0.1079 -6.8249,0.90943 -3.62647,0.95564 -6.70522,2.09809 -9.64256,3.57816 l -1.85726,0.9358 -0.0729,1.79149 c -0.0796,1.95176 0.23737,2.92203 0.8737,2.67783 0.21536,-0.0826 2.85347,-0.25655 5.86231,-0.38641 z m -7.47276,-25.72218 c 2.90063,-1.24337 3.54183,-4.41884 1.33736,-6.62335 -1.65296,-1.65294 -3.8162,-1.76699 -5.49852,-0.2899 -1.13089,0.99294 -1.59165,1.91067 -1.59165,3.17024 0,1.68097 0.98573,3.06073 2.72573,3.81527 1.14987,0.49867 1.72734,0.48487 3.02708,-0.0724 z m 61.30162,-0.1655 c 1.07041,-0.44714 2.17847,-1.43628 2.67619,-2.38899 0.4572,-0.87531 0.44597,-2.75953 -0.0216,-3.66435 -1.26856,-2.45314 -4.97493,-3.00188 -7.03379,-1.0414 -1.78054,1.69549 -1.88413,3.99538 -0.2631,5.84163 1.36785,1.55791 2.91384,1.9752 4.6425,1.25311 z"
       id="path338-3-3" /><text
       xml:space="preserve"
       transform="matrix(0.43441818,0,0,0.43441818,1186.8403,-1069.3764)"
       id="text521-7-9-8-7-6"
       style="font-size:192px;font-family:GNUTypewriter;-inkscape-font-specification:GNUTypewriter;white-space:pre;shape-inside:url(#rect523-6-9-6-2-2);display:inline;fill:#ff00e6;fill-opacity:1;stroke:#ff00e6;stroke-width:0.551811;stroke-opacity:1"><tspan
         x="142.83203"
         y="1955.8793"
         id="tspan4989"><tspan
           style="font-weight:bold;font-family:'DejaVu Sans';-inkscape-font-specification:'DejaVu Sans Bold'"
           id="tspan4987">T</tspan></tspan></text><text
       xml:space="preserve"
       transform="matrix(0.43441818,0,0,0.43441818,1235.8109,-1069.3637)"
       id="text521-7-3-3-7-5-1"
       style="font-size:192px;font-family:GNUTypewriter;-inkscape-font-specification:GNUTypewriter;white-space:pre;shape-inside:url(#rect523-6-5-1-2-0-8);display:inline;fill:#ffbb00;fill-opacity:1;stroke:#ffbb00;stroke-width:0.551811;stroke-opacity:1"><tspan
         x="142.83203"
         y="1955.8793"
         id="tspan4993"><tspan
           style="font-weight:bold;font-family:'DejaVu Sans';-inkscape-font-specification:'DejaVu Sans Bold'"
           id="tspan4991">E</tspan></tspan></text><text
       xml:space="preserve"
       transform="matrix(0.43441818,0,0,0.43441818,1280.6179,-1069.4567)"
       id="text521-7-3-6-6-9-9-2"
       style="font-size:192px;font-family:GNUTypewriter;-inkscape-font-specification:GNUTypewriter;white-space:pre;shape-inside:url(#rect523-6-5-5-2-1-2-9);display:inline;fill:#006cff;fill-opacity:1;stroke:#006cff;stroke-width:0.551811;stroke-opacity:1"><tspan
         x="142.83203"
         y="1955.8793"
         id="tspan4997"><tspan
           style="font-weight:bold;font-family:'DejaVu Sans';-inkscape-font-specification:'DejaVu Sans Bold'"
           id="tspan4995">C</tspan></tspan></text><text
       xml:space="preserve"
       transform="matrix(0.43441818,0,0,0.43441818,850.5222,-1069.3681)"
       id="text521-0-6-2-9"
       style="font-size:192px;font-family:GNUTypewriter;-inkscape-font-specification:GNUTypewriter;letter-spacing:-10.97px;word-spacing:0px;white-space:pre;shape-inside:url(#rect523-2-0-3-7);display:inline;fill:#ffffff;stroke:#ffffff;stroke-width:0.551811"><tspan
         x="142.83203"
         y="1955.8793"
         id="tspan5001"><tspan
           style="font-weight:bold;font-family:'DejaVu Sans';-inkscape-font-specification:'DejaVu Sans Bold'"
           id="tspan4999">INGENIA</tspan></tspan></text></g></svg>
