<?xml version="1.0" encoding="UTF-8" standalone="no"?>
<!-- Created with Inkscape (http://www.inkscape.org/) -->

<svg
   width="534.87762mm"
   height="133.82355mm"
   viewBox="0 0 534.87762 133.82355"
   version="1.1"
   id="svg5"
   xml:space="preserve"
   inkscape:version="1.2.2 (b0a8486541, 2022-12-01)"
   sodipodi:docname="ingeniatec_logo.svg"
   xmlns:inkscape="http://www.inkscape.org/namespaces/inkscape"
   xmlns:sodipodi="http://sodipodi.sourceforge.net/DTD/sodipodi-0.dtd"
   xmlns="http://www.w3.org/2000/svg"
   xmlns:svg="http://www.w3.org/2000/svg"><sodipodi:namedview
     id="namedview7"
     pagecolor="#ffffff"
     bordercolor="#000000"
     borderopacity="0.25"
     inkscape:showpageshadow="2"
     inkscape:pageopacity="0.0"
     inkscape:pagecheckerboard="0"
     inkscape:deskcolor="#d1d1d1"
     inkscape:document-units="mm"
     showgrid="false"
     showguides="true"
     inkscape:zoom="0.24598695"
     inkscape:cx="3101.7906"
     inkscape:cy="-1136.2391"
     inkscape:window-width="1920"
     inkscape:window-height="1015"
     inkscape:window-x="0"
     inkscape:window-y="0"
     inkscape:window-maximized="1"
     inkscape:current-layer="layer1"><sodipodi:guide
       position="-517.77519,-665.59604"
       orientation="0,-1"
       id="guide467"
       inkscape:locked="false" /></sodipodi:namedview><defs
     id="defs2"><rect
       x="142.83183"
       y="1778.2795"
       width="1315.6344"
       height="306.86331"
       id="rect523-6-9-6-2-2" /><rect
       x="142.83183"
       y="1778.2795"
       width="1315.6344"
       height="306.86331"
       id="rect523-6-5-1-2-0-8" /><rect
       x="142.83183"
       y="1778.2795"
       width="1315.6344"
       height="306.86331"
       id="rect523-6-5-5-2-1-2-9" /><rect
       x="142.83183"
       y="1778.2795"
       width="1315.6344"
       height="306.86331"
       id="rect523-2-0-3-7" /></defs><g
     inkscape:label="Capa 1"
     inkscape:groupmode="layer"
     id="layer1"
     transform="translate(-798.1368,348.40746)"><path
       style="fill:#ffffff;stroke-width:0.22056"
       d="m 836.40741,-214.74707 c -1.52512,-0.23793 -1.6404,-1.2776 -0.22276,-2.00891 0.5431,-0.28016 2.14449,-0.32869 10.45632,-0.3168 7.2893,0.0102 9.94263,0.0834 10.31117,0.28346 0.38079,0.20671 0.49632,0.46515 0.49632,1.11021 v 0.8408 l -2.48133,0.14288 c -3.02753,0.17446 -17.36617,0.13439 -18.55972,-0.0518 z m 9.9027,-4.38476 c -0.24259,-0.0513 -0.51261,-0.15987 -0.59997,-0.24159 -0.0874,-0.0814 -0.3046,-1.81148 -0.48265,-3.84409 -0.42132,-4.80752 -0.71534,-5.50678 -3.13983,-7.46838 -0.95107,-0.7695 -2.20574,-1.84571 -2.78811,-2.39158 -1.00368,-0.94086 -1.07445,-1.08442 -1.35905,-2.75705 -0.16503,-0.97045 -0.3702,-2.88106 -0.45573,-4.24578 l -0.1556,-2.48132 h 8.95688 8.9568 v 2.61346 c 0,1.4374 -0.0633,3.34802 -0.14156,4.2458 l -0.14156,1.63235 -1.52584,1.2131 c -0.8392,0.66717 -2.25076,1.96699 -3.13682,2.88845 -1.83928,1.91288 -1.962,2.24295 -2.3287,6.26482 -0.12182,1.33439 -0.27777,2.84774 -0.34672,3.36297 -0.13264,0.99065 -0.54508,1.37069 -1.31168,1.20884 z m -11.95984,-26.70655 c -3.75127,-0.19747 -3.67631,-0.10925 -3.77519,-4.43811 l -0.0749,-3.29216 -0.91731,-0.1205 c -0.50458,-0.0662 -1.95959,-0.22716 -3.23326,-0.35749 -7.67927,-0.78569 -12.2179,-2.80941 -15.94794,-7.111 -2.36128,-2.72316 -3.12371,-4.14052 -4.23392,-7.8713 l -0.68914,-2.31589 -1.75052,-0.28413 c -2.27161,-0.36873 -3.927,-1.16884 -4.6365,-2.24102 -0.81753,-1.23537 -1.02225,-3.83992 -0.93689,-11.92041 l 0.0733,-6.94886 0.61237,-1.0418 c 0.78418,-1.33396 2.04527,-2.07716 4.27746,-2.52082 0.94982,-0.18878 1.93515,-0.47416 2.18966,-0.63416 0.29469,-0.18526 0.72207,-1.03803 1.17682,-2.34802 1.82811,-5.26653 5.37741,-9.87997 9.47289,-12.31306 l 1.56986,-0.93262 v -10.66891 -10.6689 l -1.31377,-0.66321 c -2.83573,-1.43146 -3.98996,-3.12626 -4.15393,-6.09956 -0.12796,-2.3212 0.29819,-3.65057 1.65373,-5.15829 1.09596,-1.21899 2.21185,-1.88507 3.92425,-2.3425 1.50494,-0.40198 2.2471,-0.37486 3.92559,0.14346 1.82053,0.56233 3.41433,1.9413 4.27921,3.70259 0.54484,1.10959 0.61762,1.50461 0.61762,3.35309 0,1.90719 -0.0584,2.20067 -0.64981,3.26847 -0.75382,1.36084 -1.64747,2.20294 -3.36856,3.17424 l -1.23051,0.69442 0.12416,5.60243 c 0.0683,3.08133 0.18039,5.65874 0.24917,5.72761 0.0693,0.0689 0.9294,-0.24247 1.9124,-0.69178 6.18017,-2.82506 12.69032,-4.26719 16.78803,-3.71894 2.41833,0.32357 4.09606,0.97452 5.34474,2.07369 1.90197,1.67415 2.69426,3.54487 3.0702,7.24933 l 0.25742,2.53645 9.37385,0.13761 c 8.58752,0.12606 10.68464,0.25768 13.23627,0.831 l 0.87971,0.19764 v -10.19759 -10.19759 l -1.15798,-0.61924 c -2.5196,-1.34745 -3.91326,-3.04201 -4.32813,-5.26292 -0.55462,-2.9685 1.22507,-6.22549 4.16275,-7.61813 0.99291,-0.47073 1.53326,-0.57509 2.9775,-0.57509 2.13248,0 3.73653,0.64831 5.18293,2.09472 1.40631,1.40625 1.8703,2.60859 1.87289,4.85261 0,1.71905 -0.0608,1.99062 -0.75418,3.2698 -0.80052,1.47639 -1.68624,2.34023 -3.25044,3.17004 l -0.95581,0.50706 0.009,11.13872 v 11.13873 l 1.36172,0.86849 c 2.76511,1.76362 6.42136,5.80212 7.87576,8.69914 0.63154,1.25809 1.59638,3.95868 1.88098,5.2653 0.17089,0.7842 0.2661,0.82536 2.4369,1.05239 1.67892,0.17553 3.43377,0.96173 4.03662,1.80844 0.75868,1.0654 0.92282,2.30238 1.06179,8.0016 0.17268,7.08229 -0.10734,10.89529 -0.89939,12.24676 -0.74017,1.26296 -2.04536,2.01886 -4.23653,2.45355 -0.94981,0.18843 -1.84788,0.49606 -1.99568,0.68363 -0.14776,0.18756 -0.57894,1.34373 -0.95815,2.56922 -2.10354,6.79832 -6.21228,10.869 -13.21992,13.09735 -2.23334,0.71017 -5.24061,1.272 -7.94019,1.48333 -0.90981,0.0712 -1.96751,0.17732 -2.35047,0.23577 l -0.69623,0.10632 -0.0759,3.14716 c -0.0838,3.48466 -0.30452,4.16274 -1.44084,4.42756 -0.85819,0.20005 -23.38301,0.33865 -26.69563,0.16433 z m 27.84065,-10.39985 c 0.0801,-0.36494 0.3211,-0.75739 0.53551,-0.87213 0.21433,-0.11465 1.71992,-0.31913 3.34563,-0.45422 1.62572,-0.13513 3.70027,-0.3958 4.60999,-0.57935 5.61932,-1.13367 10.2388,-4.82851 12.31527,-9.85032 1.10488,-2.67212 1.17765,-3.78445 1.09988,-16.80482 l -0.0709,-11.9103 -0.689,-1.92533 c -1.79369,-5.01246 -5.64773,-9.07591 -10.61185,-11.18833 -3.12732,-1.33078 -3.29554,-1.34912 -14.28419,-1.55731 -20.36475,-0.38583 -31.12065,-0.20798 -34.92312,0.57746 -2.10587,0.43498 -4.10147,1.2321 -5.7466,2.29539 -3.12592,2.02037 -6.23512,5.78296 -7.71372,9.33451 -1.02992,2.47408 -1.17365,4.77589 -1.07653,17.2412 0.0724,9.28403 0.13015,10.74982 0.46958,11.91029 1.26327,4.31929 4.58714,8.36187 8.51738,10.35893 2.23961,1.13802 4.17686,1.63246 7.90479,2.01763 3.83471,0.39617 4.43708,0.55225 4.60463,1.19303 0.21023,0.80394 0.045,0.79589 17.19369,0.84011 l 14.37404,0.037 z m -39.23076,-15.34622 c -3.8077,-0.92166 -6.95328,-4.05441 -7.96286,-7.93032 -0.43766,-1.68035 -0.43464,-5.21217 0.009,-7.15008 0.97701,-4.29539 4.79631,-7.63422 9.36253,-8.18458 1.19932,-0.14448 9.63609,-0.20254 23.37943,-0.16076 l 21.50307,0.0655 1.47308,0.57335 c 2.96276,1.15315 4.90176,2.83402 6.17695,5.35465 1.67539,3.31167 1.68889,8.41134 0.0317,11.82308 -1.31002,2.69641 -4.61565,5.16267 -7.66677,5.71996 -0.88754,0.16218 -8.34073,0.23313 -23.15885,0.22067 -18.07248,-0.0161 -22.07394,-0.0725 -23.14396,-0.33155 z m 10.19597,-7.07588 c 2.69318,-1.53668 5.13066,-3.02791 5.4165,-3.3138 1.01543,-1.01539 0.83579,-2.76669 -0.37736,-3.68018 -0.38923,-0.29307 -2.78613,-1.73412 -5.32649,-3.20234 -5.33482,-3.08338 -5.80255,-3.20997 -7.09291,-1.91963 -0.63762,0.63762 -0.74993,0.90336 -0.74993,1.77453 0,1.32564 0.29511,1.61423 3.71035,3.62815 1.48351,0.87487 2.64556,1.67446 2.58229,1.77692 -0.0633,0.10237 -1.28176,0.86352 -2.70766,1.69127 -3.22377,1.87147 -3.58498,2.23704 -3.58498,3.62814 0,0.88247 0.11026,1.16388 0.67866,1.73227 0.54509,0.54509 0.8633,0.67866 1.61671,0.67866 0.79661,0 1.67633,-0.42124 5.83482,-2.79399 z m 34.63535,-2.47768 c 0.59112,-0.55224 0.68499,-0.79229 0.68499,-1.7522 0,-1.44656 -0.61121,-2.20507 -1.99143,-2.47136 -0.54235,-0.10471 -3.7156,-0.19419 -7.05157,-0.19903 -5.6364,-0.009 -6.11541,0.0216 -6.77154,0.42177 -1.54053,0.93932 -1.75786,2.81051 -0.46657,4.01676 l 0.66797,0.62396 h 7.12159 7.12158 z m -40.46992,-33.54978 c 2.68,-0.11567 6.42018,-0.21202 8.31158,-0.21409 1.89147,-10e-4 4.80846,-0.0695 6.48237,-0.14972 l 3.04336,-0.14595 -0.13483,-2.05129 c -0.20866,-3.17651 -0.92774,-4.43439 -3.09597,-5.41557 -1.02136,-0.46218 -1.43399,-0.51013 -4.21993,-0.49043 -2.79654,0.0197 -3.36999,0.0961 -6.0788,0.81001 -3.23003,0.85117 -5.97221,1.86873 -8.58844,3.187 l -1.65423,0.8335 -0.0649,1.59564 c -0.0709,1.7384 0.21142,2.6026 0.77819,2.38509 0.19181,-0.0736 2.54153,-0.2285 5.22144,-0.34417 z m -6.65584,-22.91024 c 2.58354,-1.10745 3.15464,-3.93578 1.19116,-5.89929 -1.47226,-1.47224 -3.39901,-1.57383 -4.89742,-0.25821 -1.00726,0.88439 -1.41765,1.7018 -1.41765,2.82367 0,1.49721 0.87797,2.72613 2.42775,3.39819 1.02417,0.44415 1.53851,0.43186 2.69616,-0.0645 z m 54.60015,-0.14741 c 0.9534,-0.39826 1.94032,-1.27927 2.38363,-2.12783 0.40722,-0.77962 0.39722,-2.45786 -0.0192,-3.26376 -1.12988,-2.18497 -4.43107,-2.67372 -6.26486,-0.92756 -1.58589,1.51014 -1.67816,3.55861 -0.23434,5.20303 1.21832,1.3876 2.5953,1.75927 4.13499,1.11612 z"
       id="path338-3-3"
       inkscape:export-filename="../LOGO HORIZONTAL.svg"
       inkscape:export-xdpi="96"
       inkscape:export-ydpi="96" /><g
       aria-label="T"
       transform="matrix(0.38692776,0,0,0.38692776,1144.3474,-975.93084)"
       id="text521-7-9-8-7-6"
       style="font-size:192px;font-family:GNUTypewriter;-inkscape-font-specification:GNUTypewriter;white-space:pre;shape-inside:url(#rect523-6-9-6-2-2);display:inline;fill:#ff00e6;stroke:#ff00e6;stroke-width:0.551811"><path
         d="m 143.76953,1815.9105 h 129 v 27.2813 h -46.40625 v 112.6875 h -36.09375 v -112.6875 h -46.5 z"
         style="font-weight:bold;font-family:'DejaVu Sans';-inkscape-font-specification:'DejaVu Sans Bold'"
         id="path567" /></g><g
       aria-label="E"
       transform="matrix(0.38692776,0,0,0.38692776,1187.9645,-975.91955)"
       id="text521-7-3-3-7-5-1"
       style="font-size:192px;font-family:GNUTypewriter;-inkscape-font-specification:GNUTypewriter;white-space:pre;shape-inside:url(#rect523-6-5-1-2-0-8);display:inline;fill:#ffbb00;stroke:#ffbb00;stroke-width:0.551811"><path
         d="m 160.45703,1815.9105 h 97.40625 v 27.2813 h -61.3125 v 26.0625 h 57.65625 v 27.2812 h -57.65625 v 32.0625 h 63.375 v 27.2813 h -99.46875 z"
         style="font-weight:bold;font-family:'DejaVu Sans';-inkscape-font-specification:'DejaVu Sans Bold'"
         id="path570" /></g><g
       aria-label="C"
       transform="matrix(0.38692776,0,0,0.38692776,1227.8733,-976.00239)"
       id="text521-7-3-6-6-9-9-2"
       style="font-size:192px;font-family:GNUTypewriter;-inkscape-font-specification:GNUTypewriter;white-space:pre;shape-inside:url(#rect523-6-5-5-2-1-2-9);display:inline;fill:#006cff;stroke:#006cff;stroke-width:0.551811"><path
         d="m 271.45703,1948.1918 q -9.9375,5.1562 -20.71875,7.7812 -10.78125,2.625 -22.5,2.625 -34.96875,0 -55.40625,-19.5 -20.4375,-19.5937 -20.4375,-53.0625 0,-33.5625 20.4375,-53.0625 20.4375,-19.5937 55.40625,-19.5937 11.71875,0 22.5,2.625 10.78125,2.625 20.71875,7.7812 v 28.9688 q -10.03125,-6.8438 -19.78125,-10.0313 -9.75,-3.1875 -20.53125,-3.1875 -19.3125,0 -30.375,12.375 -11.0625,12.375 -11.0625,34.125 0,21.6563 11.0625,34.0313 11.0625,12.375 30.375,12.375 10.78125,0 20.53125,-3.1875 9.75,-3.1875 19.78125,-10.0313 z"
         style="font-weight:bold;font-family:'DejaVu Sans';-inkscape-font-specification:'DejaVu Sans Bold'"
         id="path573" /></g><g
       aria-label="INGENIA"
       transform="matrix(0.38692776,0,0,0.38692776,844.79545,-975.92344)"
       id="text521-0-6-2-9"
       style="font-size:192px;font-family:GNUTypewriter;-inkscape-font-specification:GNUTypewriter;letter-spacing:-10.97px;word-spacing:0px;white-space:pre;shape-inside:url(#rect523-2-0-3-7);display:inline;fill:#ffffff;stroke:#ffffff;stroke-width:0.551811"><path
         d="m 160.45703,1815.9105 h 36.09375 v 139.9688 h -36.09375 z"
         style="font-weight:bold;font-family:'DejaVu Sans';-inkscape-font-specification:'DejaVu Sans Bold'"
         id="path576" /><path
         d="m 220.92453,1815.9105 h 40.3125 l 50.90625,96 v -96 h 34.21875 v 139.9688 h -40.3125 l -50.90625,-96 v 96 h -34.21875 z"
         style="font-weight:bold;font-family:'DejaVu Sans';-inkscape-font-specification:'DejaVu Sans Bold'"
         id="path578" /><path
         d="m 496.45453,1945.473 q -13.5,6.5625 -28.03125,9.8438 -14.53125,3.2812 -30,3.2812 -34.96875,0 -55.40625,-19.5 -20.4375,-19.5937 -20.4375,-53.0625 0,-33.8437 20.8125,-53.25 20.8125,-19.4062 57,-19.4062 13.96875,0 26.71875,2.625 12.84375,2.625 24.1875,7.7812 v 28.9688 q -11.71875,-6.6563 -23.34375,-9.9375 -11.53125,-3.2813 -23.15625,-3.2813 -21.5625,0 -33.28125,12.0938 -11.625,12 -11.625,34.4062 0,22.2188 11.25,34.3125 11.25,12.0938 31.96875,12.0938 5.625,0 10.40625,-0.6563 4.875,-0.75 8.71875,-2.25 v -27.1875 h -22.03125 v -24.1875 h 56.25 z"
         style="font-weight:bold;font-family:'DejaVu Sans';-inkscape-font-specification:'DejaVu Sans Bold'"
         id="path580" /><path
         d="m 517.26578,1815.9105 h 97.40625 v 27.2813 h -61.3125 v 26.0625 h 57.65625 v 27.2812 h -57.65625 v 32.0625 h 63.375 v 27.2813 h -99.46875 z"
         style="font-weight:bold;font-family:'DejaVu Sans';-inkscape-font-specification:'DejaVu Sans Bold'"
         id="path582" /><path
         d="m 637.45203,1815.9105 h 40.3125 l 50.90625,96 v -96 h 34.21875 v 139.9688 h -40.3125 l -50.90625,-96 v 96 h -34.21875 z"
         style="font-weight:bold;font-family:'DejaVu Sans';-inkscape-font-specification:'DejaVu Sans Bold'"
         id="path584" /><path
         d="m 787.16956,1815.9105 h 36.09375 v 139.9688 h -36.09375 z"
         style="font-weight:bold;font-family:'DejaVu Sans';-inkscape-font-specification:'DejaVu Sans Bold'"
         id="path586" /><path
         d="m 932.57452,1930.3793 h -56.4375 l -8.90625,25.5 h -36.28125 l 51.84375,-139.9688 h 43.03125 l 51.84375,139.9688 h -36.28125 z m -47.4375,-25.9688 h 38.34375 l -19.125,-55.6875 z"
         style="font-weight:bold;font-family:'DejaVu Sans';-inkscape-font-specification:'DejaVu Sans Bold'"
         id="path588" /></g></g></svg>
