<?xml version="1.0" encoding="UTF-8" standalone="no"?>
<!-- Created with Inkscape (http://www.inkscape.org/) -->

<svg
   width="904.2511mm"
   height="1250.4735mm"
   viewBox="0 0 904.2511 1250.4735"
   version="1.1"
   id="svg5"
   xml:space="preserve"
   xmlns:inkscape="http://www.inkscape.org/namespaces/inkscape"
   xmlns:sodipodi="http://sodipodi.sourceforge.net/DTD/sodipodi-0.dtd"
   xmlns="http://www.w3.org/2000/svg"
   xmlns:svg="http://www.w3.org/2000/svg"><sodipodi:namedview
     id="namedview7"
     pagecolor="#ffffff"
     bordercolor="#000000"
     borderopacity="0.25"
     inkscape:showpageshadow="2"
     inkscape:pageopacity="0.0"
     inkscape:pagecheckerboard="0"
     inkscape:deskcolor="#d1d1d1"
     inkscape:document-units="mm"
     showgrid="false" /><defs
     id="defs2" /><g
     inkscape:label="Capa 1"
     inkscape:groupmode="layer"
     id="layer1"
     transform="translate(438.82215,165.49354)"><path
       style="fill:#ffffff;stroke-width:2.06097"
       d="m -81.212093,1083.4541 c -14.250804,-2.2232 -15.327942,-11.938 -2.081309,-18.7715 5.075003,-2.6179 20.038653,-3.0713 97.705674,-2.9603 68.113372,0.097 92.906118,0.7789 96.350048,2.6487 3.55766,1.9315 4.63717,4.3466 4.63717,10.3741 v 7.8564 l -23.18584,1.336 c -28.289611,1.6301 -162.272063,1.2566 -173.425743,-0.4834 z m 92.53292,-40.972 c -2.2670587,-0.4786 -4.7897854,-1.4944 -5.6060826,-2.2573 -0.8162711,-0.763 -2.8460011,-16.927 -4.5104297,-35.92 -3.9367106,-44.92237 -6.6837147,-51.45646 -29.3388997,-69.78604 -8.887019,-7.19021 -20.610531,-17.24658 -26.052186,-22.34747 -9.378718,-8.79136 -10.039994,-10.13291 -12.698969,-25.76205 -1.542759,-9.06822 -3.459329,-26.92134 -4.258977,-39.67356 l -1.453974,-23.18584 h 83.694256 83.694298 v 24.42061 c 0,13.43134 -0.594941,31.28444 -1.322104,39.67356 l -1.322102,15.25294 -14.257759,11.33531 c -7.841754,6.23443 -21.031525,18.38006 -29.310628,26.9903 -17.186786,17.87428 -18.333302,20.95866 -21.760327,58.5397 -1.13702,12.46884 -2.594836,26.60984 -3.239541,31.42434 -1.239553,9.2566 -5.092927,12.8078 -12.256575,11.2955 z M -100.43362,792.93111 c -35.05291,-1.84517 -34.35283,-1.02214 -35.27626,-41.47061 l -0.70229,-30.7624 -8.57205,-1.12618 c -4.71461,-0.61944 -18.31008,-2.12259 -30.21216,-3.34034 -71.75614,-7.34171 -114.16575,-26.25177 -149.01986,-66.44662 -22.06462,-25.44561 -29.18865,-38.68976 -39.56284,-73.55079 l -6.43983,-21.64013 -16.35699,-2.65507 c -21.22623,-3.44547 -36.69425,-10.92182 -43.32426,-20.94047 -7.63907,-11.5434 -9.55193,-35.88099 -8.75467,-111.38655 l 0.68561,-64.93142 5.7224,-9.73481 c 7.32718,-12.46474 19.11125,-19.40944 39.96924,-23.55505 8.87548,-1.76405 18.08291,-4.43064 20.46091,-5.92574 2.75337,-1.73107 6.747,-9.69949 10.99603,-21.94017 17.08246,-49.21155 50.24785,-92.32045 88.51688,-115.05569 l 14.66884,-8.71458 V 70.062279 -29.629923 l -12.27655,-6.197193 c -26.49742,-13.375849 -37.28237,-29.212462 -38.81466,-56.995477 -1.19624,-21.689767 2.78618,-34.111617 15.45286,-48.200007 10.24103,-11.39049 20.66752,-17.61439 36.66884,-21.8887 14.06222,-3.75634 20.99691,-3.50271 36.681,1.3416 17.01194,5.25445 31.9043,18.13992 39.98611,34.59754 5.09149,10.36827 5.77143,14.05951 5.77143,31.332059 0,17.821193 -0.54524,20.563398 -6.07243,30.541125 -7.04407,12.715986 -15.39438,20.584609 -31.47643,29.660762 l -11.49767,6.488877 1.15937,52.350066 c 0.63766,28.792541 1.68571,52.87639 2.329,53.519697 0.6433,0.64329 8.68444,-2.265494 17.86919,-6.463944 57.74914,-26.397837 118.581096,-39.873509 156.870568,-34.750426 22.597173,3.023472 38.2744637,9.105953 49.9427122,19.376766 C 22.730609,70.726529 30.13374,88.206782 33.646919,122.82208 l 2.405476,23.70108 87.590965,1.28532 c 80.24294,1.17747 99.83853,2.40772 123.68188,7.76497 l 8.2198,1.84687 V 62.132103 -33.156086 l -10.82006,-5.786319 c -23.54409,-12.590834 -36.56592,-28.42509 -40.44291,-49.177679 -5.18212,-27.738406 11.44764,-58.172336 38.89718,-71.185326 9.27831,-4.39855 14.32728,-5.37371 27.82302,-5.37371 19.92564,0 34.91468,6.05792 48.43016,19.5734 13.14027,13.14028 17.47644,24.37524 17.50052,45.343685 0.0185,16.063241 -0.56684,18.60086 -7.0475,30.553762 -7.47967,13.795478 -15.75638,21.867505 -30.37238,29.621278 l -8.93166,4.738247 0.043,104.082212 0.0428,104.082226 12.72419,8.11558 c 25.83761,16.47947 60.00233,54.21595 73.59236,81.28611 5.90186,11.75599 14.91661,36.99081 17.57603,49.20009 1.59612,7.32771 2.48657,7.71227 22.77115,9.83358 15.68812,1.64061 32.08564,8.98681 37.71929,16.8985 7.08893,9.95553 8.62262,21.5138 9.92097,74.76845 1.61344,66.17834 -1.00304,101.80766 -8.40382,114.43612 -6.916,11.80128 -19.11234,18.86466 -39.58691,22.92634 -8.87548,1.7607 -17.26705,4.63528 -18.64795,6.38799 -1.38091,1.75269 -5.40979,12.55595 -8.95306,24.00725 -19.65604,63.52485 -58.04915,101.56204 -123.52936,122.38417 -20.86864,6.63602 -48.96971,11.88572 -74.19469,13.8606 -8.50148,0.66561 -18.38497,1.65697 -21.96334,2.20303 l -6.50611,0.99288 -0.70725,29.40778 c -0.78312,32.5613 -2.84484,38.89723 -13.46263,41.37199 -8.01974,1.86922 -218.495616,3.16436 -249.44945,1.53496 z m 260.14761,-97.17818 c 0.74895,-3.41002 3.00072,-7.07717 5.00389,-8.14923 2.00317,-1.07208 16.07116,-2.98205 31.26219,-4.24438 15.191,-1.26234 34.57577,-3.6984 43.07725,-5.41355 52.50784,-10.59314 95.67263,-45.11847 115.0756,-92.04324 10.32432,-24.96859 11.00459,-35.36254 10.27766,-157.0273 l -0.66496,-111.29208 -6.43789,-17.99072 c -16.76056,-46.83748 -52.77378,-84.80688 -99.1597,-104.54586 -29.2221,-12.43512 -30.79358,-12.60645 -133.4742,-14.55179 -190.291771,-3.60519 -290.79674,-1.94333 -326.32789,5.39583 -19.67733,4.06446 -38.32477,11.51293 -53.69728,21.44867 -29.20901,18.8787 -58.26251,54.03703 -72.07799,87.22335 -9.62419,23.11833 -10.96717,44.62684 -10.05944,161.10513 0.67609,86.75149 1.21605,100.44815 4.3876,111.29207 11.80417,40.35999 42.86355,78.13455 79.58819,96.79553 20.92754,10.63395 39.0288,15.25418 73.86362,18.85313 35.83211,3.70201 41.46072,5.16035 43.0265,11.148 1.96451,7.51217 0.41947,7.4367 160.660948,7.85004 l 134.314152,0.34644 z M -206.86498,552.35489 c -35.58013,-8.61209 -64.97335,-37.885 -74.40673,-74.10215 -4.08971,-15.70143 -4.06146,-48.70355 0.057,-66.8118 9.12891,-40.13676 44.81783,-71.33545 87.48518,-76.47812 11.20656,-1.35076 90.04113,-1.89261 218.462158,-1.50153 l 200.928252,0.61183 13.76459,5.35741 c 27.68442,10.77522 45.80294,26.48179 57.71853,50.03494 15.65512,30.94487 15.78158,78.59717 0.29321,110.47706 -12.24099,25.19577 -43.12967,48.24096 -71.6396,53.44835 -8.29338,1.51479 -77.93785,2.1784 -216.4011774,2.06194 C -159.47613,555.31075 -196.86588,554.7752 -206.86517,552.35489 Z m 95.27255,-66.11817 c 25.165813,-14.35913 47.941873,-28.29336 50.613392,-30.96486 9.487883,-9.48792 7.809698,-25.85233 -3.526572,-34.38832 -3.636637,-2.73833 -26.033748,-16.20379 -49.7713,-29.92326 -49.85021,-28.81163 -54.22072,-29.99444 -66.27798,-17.93717 -5.95783,5.95783 -7.00726,8.44113 -7.00726,16.58137 0,12.38703 2.75766,15.08364 34.66975,33.90214 13.86285,8.17491 24.72113,15.64666 24.12948,16.60393 -0.5916,0.95728 -11.97676,8.06882 -25.3003,15.80344 -30.12351,17.48737 -33.49893,20.90343 -33.49893,33.9021 0,8.24601 1.03013,10.87547 6.34143,16.18677 5.09321,5.09321 8.06676,6.34141 15.10681,6.34141 7.44388,0 15.66377,-3.9361 54.52148,-26.10755 z m 323.63925,-23.15197 c 5.5239,-5.16008 6.40087,-7.40326 6.40087,-16.37281 0,-13.51708 -5.71123,-20.60454 -18.60872,-23.09285 -5.06787,-0.97775 -34.71872,-1.81465 -65.8908,-1.85977 -52.667348,-0.0763 -57.143231,0.20262 -63.274577,3.94104 -14.395065,8.77718 -16.426009,26.26181 -4.359717,37.5334 l 6.241297,5.83028 h 66.545417 66.5454 z M -166.11128,149.5894 c 25.04173,-1.08095 59.99087,-1.9812 77.664757,-2.00055 17.673895,-0.0185 44.931344,-0.64894 60.572124,-1.39907 l 28.43783168,-1.36384 -1.2590756,-19.16752 C -2.6453846,95.976411 -9.364827,84.222731 -29.6255,75.054224 c -9.543365,-4.318648 -13.399323,-4.766783 -39.431259,-4.582779 -26.131634,0.184666 -31.489921,0.898704 -56.801701,7.568931 -30.18178,7.953589 -55.80537,17.461952 -80.25237,29.779964 l -15.45724,7.78836 -0.60489,14.90998 c -0.65898,16.24394 1.97582,24.31909 7.27185,22.28682 1.79266,-0.68793 23.7481,-2.13516 48.78983,-3.2161 z m -62.19349,-214.077655 c 24.14122,-10.348123 29.47724,-36.776665 11.1298,-55.124105 -13.75682,-13.75686 -31.76036,-14.70605 -45.76171,-2.41269 -9.41218,8.26401 -13.24692,15.90197 -13.24692,26.384949 0,13.990082 8.20394,25.473376 22.6853,31.753302 9.57014,4.150145 14.37618,4.035411 25.19353,-0.601456 z m 510.19329,-1.377206 c 8.90874,-3.721411 18.13087,-11.953773 22.27316,-19.882721 3.80582,-7.284983 3.71235,-22.966848 -0.18184,-30.497368 -10.55782,-20.41665 -41.40449,-24.98373 -58.53969,-8.66725 -14.8189,14.11089 -15.68101,33.252283 -2.18971,48.618054 11.38436,12.966036 24.2511,16.439085 38.63808,10.429285 z"
       id="path302"
       inkscape:export-filename="path302.svg"
       inkscape:export-xdpi="96"
       inkscape:export-ydpi="96" /></g></svg>
